<svg width="25" height="24" viewBox="0 0 25 24" fill="none" xmlns="http://www.w3.org/2000/svg">
<g clip-path="url(#clip0)">
<path d="M4.81799 6.664H4.81699C4.38968 6.66401 3.97558 6.51586 3.64526 6.24478C3.31493 5.97371 3.08882 5.59648 3.00544 5.17738C2.92207 4.75828 2.98659 4.32324 3.18801 3.94637C3.38944 3.56951 3.7153 3.27415 4.11008 3.11061C4.50487 2.94708 4.94414 2.92549 5.35306 3.04952C5.76197 3.17355 6.11523 3.43554 6.35264 3.79083C6.59005 4.14612 6.69693 4.57274 6.65505 4.998C6.61318 5.42326 6.42514 5.82084 6.12299 6.123C5.95742 6.29436 5.759 6.43059 5.53959 6.52354C5.32018 6.61649 5.08428 6.66427 4.84599 6.664H4.81699H4.81799ZM1.84799 13.846H1.84699C1.41968 13.846 1.00558 13.6979 0.675257 13.4268C0.344931 13.1557 0.118817 12.7785 0.035441 12.3594C-0.0479349 11.9403 0.0165865 11.5052 0.218011 11.1284C0.419436 10.7515 0.745302 10.4561 1.14008 10.2926C1.53487 10.1291 1.97414 10.1075 2.38306 10.2315C2.79197 10.3556 3.14523 10.6175 3.38264 10.9728C3.62005 11.3281 3.72693 11.7547 3.68505 12.18C3.64318 12.6053 3.45514 13.0028 3.15299 13.305C2.9873 13.4765 2.78872 13.6128 2.56913 13.7057C2.34953 13.7987 2.11345 13.8464 1.87499 13.846H1.84399H1.84599H1.84799ZM12 3.692H11.999C11.5717 3.69201 11.1576 3.54386 10.8273 3.27278C10.4969 3.00171 10.2708 2.62448 10.1874 2.20538C10.1041 1.78628 10.1686 1.35124 10.37 0.974373C10.5714 0.597511 10.8973 0.302149 11.2921 0.138613C11.6869 -0.0249223 12.1261 -0.0465129 12.5351 0.0775203C12.944 0.201554 13.2972 0.463536 13.5346 0.818829C13.7721 1.17412 13.8789 1.60074 13.8371 2.026C13.7952 2.45126 13.6071 2.84884 13.305 3.151C13.1394 3.32236 12.941 3.45859 12.7216 3.55154C12.5022 3.64449 12.2663 3.69227 12.028 3.692H11.999H12ZM4.81799 21.029H4.81699C4.38968 21.029 3.97558 20.8809 3.64526 20.6098C3.31493 20.3387 3.08882 19.9615 3.00544 19.5424C2.92207 19.1233 2.98659 18.6882 3.18801 18.3114C3.38944 17.9345 3.7153 17.6391 4.11008 17.4756C4.50487 17.3121 4.94414 17.2905 5.35306 17.4145C5.76197 17.5386 6.11523 17.8005 6.35264 18.1558C6.59005 18.5111 6.69693 18.9377 6.65505 19.363C6.61318 19.7883 6.42514 20.1858 6.12299 20.488C5.95767 20.6594 5.75944 20.7957 5.54018 20.8887C5.32092 20.9816 5.08515 21.0294 4.84699 21.029H4.81599H4.81799ZM19.182 7.125C18.8749 7.13139 18.5697 7.07643 18.2841 6.96334C17.9986 6.85025 17.7385 6.6813 17.519 6.4664C17.2996 6.2515 17.1253 5.99496 17.0063 5.71182C16.8873 5.42868 16.826 5.12464 16.826 4.8175C16.826 4.51037 16.8873 4.20632 17.0063 3.92318C17.1253 3.64004 17.2996 3.38351 17.519 3.1686C17.7385 2.9537 17.9986 2.78475 18.2841 2.67166C18.5697 2.55857 18.8749 2.50361 19.182 2.51C19.7857 2.52257 20.3604 2.7712 20.7829 3.20257C21.2053 3.63394 21.442 4.2137 21.442 4.8175C21.442 5.4213 21.2053 6.00106 20.7829 6.43243C20.3604 6.8638 19.7857 7.11243 19.182 7.125V7.125ZM12 24H11.999C11.5717 24 11.1576 23.8519 10.8273 23.5808C10.4969 23.3097 10.2708 22.9325 10.1874 22.5134C10.1041 22.0943 10.1686 21.6592 10.37 21.2824C10.5714 20.9055 10.8973 20.6101 11.2921 20.4466C11.6869 20.2831 12.1261 20.2615 12.5351 20.3855C12.944 20.5096 13.2972 20.7715 13.5346 21.1268C13.7721 21.4821 13.8789 21.9087 13.8371 22.334C13.7952 22.7593 13.6071 23.1568 13.305 23.459C13.1394 23.6304 12.941 23.7666 12.7216 23.8595C12.5022 23.9525 12.2663 24.0003 12.028 24H11.999H12ZM22.154 14.769H22.106C21.356 14.769 20.678 14.46 20.193 13.962L20.192 13.961C19.693 13.458 19.384 12.765 19.384 12C19.384 11.235 19.692 10.542 20.192 10.038C20.4406 9.78194 20.7381 9.57845 21.0669 9.43965C21.3957 9.30085 21.7491 9.22955 22.106 9.23H22.156H22.153H22.201C22.951 9.23 23.628 9.539 24.114 10.037L24.115 10.038C24.614 10.541 24.923 11.234 24.923 11.999C24.923 12.764 24.615 13.457 24.115 13.961C23.8663 14.2173 23.5686 14.421 23.2397 14.56C22.9107 14.699 22.5571 14.7704 22.2 14.77H22.151H22.153L22.154 14.769ZM19.183 22.412H19.133C18.7154 22.4124 18.3021 22.3284 17.9178 22.1649C17.5336 22.0015 17.1863 21.7621 16.897 21.461L16.896 21.46C16.312 20.876 15.951 20.069 15.951 19.177C15.951 18.285 16.312 17.479 16.896 16.894C17.1859 16.5947 17.5331 16.3568 17.9169 16.1944C18.3007 16.0321 18.7133 15.9486 19.13 15.949H19.184H19.181H19.223C20.1 15.949 20.893 16.311 21.46 16.893L21.461 16.894C22.049 17.476 22.413 18.284 22.413 19.177C22.413 20.07 22.049 20.877 21.461 21.459C21.1712 21.7607 20.8233 22.0006 20.4384 22.1644C20.0534 22.3282 19.6393 22.4124 19.221 22.412H19.181H19.183Z" fill="#3AA682"/>
</g>
<defs>
<clipPath id="clip0">
<rect width="25" height="24" fill="white"/>
</clipPath>
</defs>
</svg>
